HIERARCHY
ROOT Hips
{
 OFFSET 0.000000 0.000000 0.000000
 CHANNELS 6 Xposition Yposition Zposition Yrotation Xrotation Zrotation
 JOINT Chest
 {
  OFFSET 0.000000 9.588913 -0.003946
  CHANNELS 3 Yrotation Xrotation Zrotation
  JOINT Chest2
  {
   OFFSET 0.000000 9.541882 0.008053
   CHANNELS 3 Yrotation Xrotation Zrotation
   JOINT Chest3
   {
    OFFSET 0.000000 9.501360 0.000000
    CHANNELS 3 Yrotation Xrotation Zrotation
    JOINT Chest4
    {
     OFFSET 0.000000 9.491660 0.000000
     CHANNELS 3 Yrotation Xrotation Zrotation
     JOINT Neck
     {
      OFFSET 0.000000 14.331917 0.000000
      CHANNELS 3 Yrotation Xrotation Zrotation
      JOINT Head
      {
       OFFSET 0.000000 8.884799 0.017034
       CHANNELS 3 Yrotation Xrotation Zrotation
       End Site
       {
        OFFSET 0.000000 16.896195 0.008993
       }
      }
     }
     JOINT RightCollar
     {
      OFFSET -2.923010 9.499495 0.000000
      CHANNELS 3 Yrotation Xrotation Zrotation
      JOINT RightShoulder
      {
       OFFSET -13.795216 0.000000 0.000000
       CHANNELS 3 Yrotation Xrotation Zrotation
       JOINT RightElbow
       {
        OFFSET -30.272209 0.000000 0.000000
        CHANNELS 3 Yrotation Xrotation Zrotation
        JOINT RightWrist
        {
         OFFSET -24.478199 0.000000 0.000000
         CHANNELS 3 Yrotation Xrotation Zrotation
         End Site
         {
          OFFSET -18.090752 0.000000 0.000000
         }
        }
       }
      }
     }
     JOINT LeftCollar
     {
      OFFSET 2.923010 9.499495 0.000000
      CHANNELS 3 Yrotation Xrotation Zrotation
      JOINT LeftShoulder
      {
       OFFSET 13.795216 0.000000 0.000000
       CHANNELS 3 Yrotation Xrotation Zrotation
       JOINT LeftElbow
       {
        OFFSET 30.272209 0.000000 0.000000
        CHANNELS 3 Yrotation Xrotation Zrotation
        JOINT LeftWrist
        {
         OFFSET 24.478199 0.000000 0.000000
         CHANNELS 3 Yrotation Xrotation Zrotation
         End Site
         {
          OFFSET 18.090752 0.000000 0.000000
         }
        }
       }
      }
     }
    }
   }
  }
 }
 JOINT RightHip
 {
  OFFSET -7.826875 0.019532 0.001973
  CHANNELS 3 Yrotation Xrotation Zrotation
  JOINT RightKnee
  {
   OFFSET 0.000000 -40.546152 -0.001885
   CHANNELS 3 Yrotation Xrotation Zrotation
   JOINT RightAnkle
   {
    OFFSET 0.000000 -39.417092 -0.003189
    CHANNELS 3 Yrotation Xrotation Zrotation
    JOINT RightToe
    {
     OFFSET 0.000000 -7.579396 17.243563
     CHANNELS 3 Yrotation Xrotation Zrotation
     End Site
     {
      OFFSET 0.000000 -1.500329 6.694466
     }
    }
   }
  }
 }
 JOINT LeftHip
 {
  OFFSET 7.826875 0.019532 0.001973
  CHANNELS 3 Yrotation Xrotation Zrotation
  JOINT LeftKnee
  {
   OFFSET 0.000000 -40.546152 -0.001885
   CHANNELS 3 Yrotation Xrotation Zrotation
   JOINT LeftAnkle
   {
    OFFSET 0.000000 -39.417092 -0.003189
    CHANNELS 3 Yrotation Xrotation Zrotation
    JOINT LeftToe
    {
     OFFSET 0.000000 -7.579396 17.243563
     CHANNELS 3 Yrotation Xrotation Zrotation
     End Site
     {
      OFFSET 0.000000 -1.500329 6.694466
     }
    }
   }
  }
 }
}
MOTION
Frames: 17
Frame Time: 0.008333
0.000000 87.345680 0.000000 0.000000 -5.767889 0.000000 0.000000 11.653876 0.000000 0.000000 -5.885988 0.000000 0.000000 -0.000000 0.000000 0.000000 -0.000000 0.000000 0.000000 12.528808 0.000000 0.000000 0.711711 0.000000 0.000000 -0.000000 0.000000 0.000000 -0.000000 0.000000 2.309063 -0.000000 0.000000 -2.309063 -0.000000 -0.000000 0.000000 -0.000000 0.000000 0.000000 0.000000 0.000000 -2.309063 0.000000 0.000000 2.309063 -0.000000 0.000000 0.000000 8.520374 0.000000 0.000000 1.905768 0.000000 -0.000000 -4.658254 0.000000 0.000000 -0.000000 0.000000 0.000000 8.520374 0.000000 0.000000 1.905768 0.000000 -0.000000 -4.658254 0.000000 0.000000 -0.000000 0.000000
34.289601 88.623643 27.834841 -151.613341 -9.065801 -0.221083 -0.198675 4.053825 0.532109 0.147637 2.511006 0.477518 0.187865 3.138558 0.598053 0.147638 2.511006 0.477518 5.956359 23.192719 -2.507722 7.104151 -0.481325 -4.116572 4.755975 -1.447044 -2.427525 5.923390 -3.882033 87.556662 6.705906 7.597393 3.545007 1.136970 -9.964038 -3.321572 -6.275008 0.900346 0.389351 -0.295704 -0.170747 -86.387453 -3.975860 9.880874 -1.298016 0.239721 -2.804528 1.387962 -26.389865 15.446291 1.004379 -1.003983 0.162444 -1.380851 -3.842470 -7.417518 -1.998543 -0.034689 0.184664 -0.000571 5.620343 1.187191 -3.670866 -2.050299 4.710440 2.515595 -3.555712 1.368470 1.457393 -0.001739 0.311803 -0.000838
34.285107 88.621141 27.834722 -151.529652 -9.058922 -0.202661 -0.190482 4.044235 0.527274 0.150351 2.504826 0.469891 0.191198 3.130832 0.588533 0.150351 2.504826 0.469891 5.957695 23.185398 -2.489554 7.100997 -0.491100 -4.096780 4.712130 -1.454226 -2.403407 5.973757 -3.905048 87.549307 6.722784 7.608676 3.566289 1.140042 -9.963351 -3.332578 -6.299952 0.893758 0.384954 -0.287923 -0.181853 -86.392596 -4.030274 9.853323 -1.352609 0.231867 -2.801207 1.392147 -26.445100 15.463787 0.981658 -1.012739 0.122446 -1.391924 -3.855325 -7.426100 -1.986400 -0.036098 0.180534 -0.000846 5.526644 1.176728 -3.720447 -2.061444 4.697002 2.522964 -3.509776 1.384897 1.462805 0.009270 0.303145 0.001980
34.277934 88.618183 27.834285 -151.446900 -9.054704 -0.171495 -0.184247 4.036017 0.511381 0.151297 2.498615 0.462473 0.192322 3.123071 0.579261 0.151297 2.498615 0.462473 5.962815 23.178401 -2.473261 7.102575 -0.500041 -4.079984 4.681202 -1.459160 -2.383381 6.023785 -3.924674 87.542432 6.741804 7.618236 3.591967 1.141130 -9.959703 -3.341605 -6.311166 0.889452 0.379290 -0.282863 -0.196206 -86.402137 -4.078412 9.829854 -1.400272 0.226745 -2.801941 1.393526 -26.503132 15.475690 0.944339 -1.010543 0.092102 -1.405683 -3.876322 -7.448018 -1.970176 -0.036776 0.181764 -0.000903 5.433792 1.160546 -3.766253 -2.072247 4.698994 2.527098 -3.549511 1.397585 1.461577 -0.002789 0.293090 -0.005052
34.268656 88.614789 27.833280 -151.364535 -9.051228 -0.132775 -0.181101 4.027357 0.488530 0.150993 2.492408 0.455308 0.191885 3.115316 0.570297 0.150993 2.492408 0.455308 5.971021 23.171920 -2.459000 7.108139 -0.507969 -4.066189 4.667985 -1.462580 -2.367161 6.068589 -3.942190 87.538412 6.760013 7.628713 3.618792 1.138841 -9.955484 -3.348175 -6.308398 0.886737 0.372984 -0.275483 -0.209914 -86.415567 -4.124357 9.816769 -1.441577 0.224931 -2.810108 1.394350 -26.566254 15.479776 0.896031 -1.006857 0.075733 -1.418104 -3.894608 -7.483026 -1.953020 -0.036932 0.185962 -0.000279 5.338743 1.137401 -3.811872 -2.086613 4.715597 2.530361 -3.626023 1.406664 1.457097 -0.027406 0.281642 -0.017721
34.259551 88.611053 27.830159 -151.282079 -9.047895 -0.104133 -0.177812 4.018449 0.475958 0.151413 2.486982 0.448412 0.192357 3.108536 0.561675 0.151414 2.486982 0.448412 5.977917 23.164502 -2.446602 7.112675 -0.517029 -4.054127 4.653131 -1.468772 -2.352039 6.117824 -3.957952 87.537072 6.777553 7.645298 3.644418 1.133931 -9.953969 -3.350279 -6.305012 0.881468 0.366639 -0.267269 -0.220648 -86.430284 -4.167794 9.803479 -1.480511 0.221638 -2.817363 1.396921 -26.627935 15.485416 0.855297 -1.017189 0.067937 -1.426799 -3.901362 -7.520198 -1.936413 -0.037586 0.185772 -0.000573 5.234043 1.109033 -3.864310 -2.103365 4.744366 2.535751 -3.604896 1.407518 1.463354 -0.030348 0.271105 -0.022387
34.249375 88.607131 27.824817 -151.199416 -9.045962 -0.080065 -0.173079 4.010147 0.467349 0.154292 2.483026 0.441792 0.195906 3.103591 0.553416 0.154292 2.483027 0.441792 5.980132 23.155239 -2.434858 7.112074 -0.528677 -4.041642 4.627289 -1.479238 -2.334854 6.175122 -3.972090 87.535562 6.794413 7.668327 3.668417 1.129568 -9.954218 -3.348784 -6.308275 0.872397 0.362086 -0.259031 -0.230624 -86.445814 -4.206630 9.787237 -1.520083 0.216084 -2.821456 1.405237 -26.688112 15.495982 0.817042 -1.040741 0.059379 -1.433869 -3.899545 -7.556355 -1.917354 -0.038377 0.184280 -0.002589 5.117013 1.078067 -3.919778 -2.114400 4.782327 2.545361 -3.540726 1.402546 1.472232 -0.027194 0.261374 -0.024263
34.237452 88.603207 27.816623 -151.114282 -9.047313 -0.059248 -0.166788 4.002887 0.461008 0.159317 2.480346 0.435613 0.202143 3.100237 0.545723 0.159317 2.480346 0.435613 5.977045 23.144985 -2.422944 7.105446 -0.541985 -4.027675 4.599963 -1.491194 -2.313246 6.233297 -3.984312 87.529095 6.809567 7.692878 3.693446 1.123630 -9.953835 -3.348113 -6.324898 0.862409 0.358545 -0.238438 -0.241613 -86.463006 -4.240754 9.778044 -1.557362 0.209416 -2.827969 1.417594 -26.750343 15.512894 0.778660 -1.071062 0.050452 -1.441677 -3.893196 -7.591724 -1.892823 -0.039088 0.182271 -0.006668 4.992862 1.048723 -3.974895 -2.118669 4.826546 2.555341 -3.454433 1.391996 1.482392 -0.022531 0.252987 -0.023336
34.223631 88.599437 27.804690 -151.024752 -9.053354 -0.043090 -0.159751 3.998267 0.459182 0.164650 2.478207 0.430056 0.208770 3.097559 0.538810 0.164650 2.478207 0.430056 5.970373 23.135507 -2.411453 7.094909 -0.554640 -4.013311 4.577705 -1.503089 -2.288620 6.291389 -3.992423 87.515942 6.823515 7.714421 3.721074 1.116354 -9.951065 -3.351325 -6.353590 0.852478 0.352880 -0.200621 -0.252718 -86.481381 -4.268949 9.780726 -1.589551 0.200456 -2.838851 1.427246 -26.815915 15.536168 0.741523 -1.107074 0.045857 -1.451017 -3.887545 -7.627724 -1.861926 -0.040140 0.178840 -0.012697 4.867572 1.026282 -4.026486 -2.121137 4.871939 2.558823 -3.343372 1.375488 1.497502 -0.014188 0.247190 -0.018278
34.207639 88.595887 27.788594 -150.934520 -9.063434 -0.029721 -0.152633 3.995755 0.459284 0.169370 2.475918 0.425410 0.214638 3.094695 0.533032 0.169370 2.475919 0.425411 5.963567 23.128357 -2.400275 7.084342 -0.564481 -3.999275 4.553304 -1.511783 -2.265172 6.361295 -3.997693 87.500990 6.837028 7.731747 3.747640 1.112130 -9.944441 -3.358736 -6.380247 0.844542 0.345850 -0.169105 -0.265723 -86.501971 -4.286532 9.780655 -1.614900 0.190433 -2.848964 1.431487 -26.881632 15.565886 0.704829 -1.148169 0.043177 -1.461090 -3.884292 -7.663585 -1.827594 -0.041257 0.174668 -0.018600 4.749744 1.013064 -4.069597 -2.122052 4.913958 2.556508 -3.251283 1.353527 1.512726 -0.007359 0.244884 -0.012803
34.189512 88.592535 27.768037 -150.846448 -9.075666 -0.018645 -0.144353 3.993573 0.460364 0.173847 2.473053 0.421440 0.220205 3.091111 0.528097 0.173847 2.473053 0.421440 5.957492 23.124130 -2.388267 7.074448 -0.570784 -3.984519 4.520878 -1.514319 -2.244645 6.445960 -4.004425 87.488986 6.848229 7.747156 3.770452 1.109893 -9.935595 -3.366340 -6.400628 0.840610 0.340752 -0.152629 -0.282471 -86.526640 -4.291767 9.773513 -1.632407 0.183314 -2.854166 1.432829 -26.946666 15.601083 0.668480 -1.191909 0.041227 -1.472606 -3.878564 -7.698959 -1.791325 -0.041767 0.169823 -0.022879 4.645243 1.007482 -4.104990 -2.125204 4.953392 2.550733 -3.187993 1.325601 1.526935 0.000371 0.245637 -0.007734
34.168714 88.589325 27.743025 -150.759783 -9.088913 -0.006535 -0.133684 3.991667 0.458540 0.178823 2.469164 0.418298 0.226402 3.086245 0.524200 0.178824 2.469164 0.418298 5.949870 23.123037 -2.374745 7.062501 -0.573531 -3.967737 4.496589 -1.510787 -2.226751 6.523673 -4.015269 87.480981 6.852796 7.762428 3.789571 1.106155 -9.928861 -3.370801 -6.414726 0.840358 0.336460 -0.151071 -0.301593 -86.552199 -4.288521 9.765647 -1.645473 0.182165 -2.854128 1.433358 -27.013795 15.638407 0.629988 -1.231485 0.042391 -1.488129 -3.873891 -7.736629 -1.751928 -0.041377 0.165387 -0.025271 4.552558 1.006859 -4.132965 -2.137598 4.993529 2.541471 -3.172064 1.291916 1.538929 0.002089 0.248728 -0.006645
34.145486 88.586152 27.713319 -150.674117 -9.101897 0.004371 -0.121499 3.988877 0.454792 0.184159 2.463915 0.416401 0.233053 3.079678 0.521861 0.184159 2.463915 0.416401 5.941623 23.125380 -2.360250 7.049676 -0.572247 -3.949752 4.489184 -1.502271 -2.210898 6.586816 -4.028878 87.476624 6.850989 7.776070 3.804208 1.099290 -9.924736 -3.373386 -6.420357 0.843447 0.331420 -0.164491 -0.320684 -86.575932 -4.280809 9.760412 -1.657041 0.186550 -2.849094 1.431676 -27.082044 15.677537 0.592169 -1.264516 0.047248 -1.506435 -3.874617 -7.776309 -1.710474 -0.040379 0.160413 -0.026076 4.467477 1.009476 -4.155025 -2.158759 5.035040 2.530013 -3.187387 1.251903 1.550708 0.000805 0.254764 -0.008562
34.120131 88.582835 27.679224 -150.588260 -9.111273 0.012041 -0.109052 3.982399 0.452177 0.190028 2.457359 0.415092 0.240376 3.071477 0.520259 0.190029 2.457359 0.415092 5.933694 23.130582 -2.344691 7.037001 -0.567551 -3.930688 4.476488 -1.493107 -2.195035 6.654433 -4.040540 87.475431 6.846668 7.787102 3.814726 1.088429 -9.920580 -3.373330 -6.428683 0.847476 0.329658 -0.176071 -0.335896 -86.599226 -4.271598 9.764140 -1.669075 0.195128 -2.843586 1.427928 -27.149410 15.715160 0.557680 -1.301317 0.057700 -1.524685 -3.872275 -7.819113 -1.667146 -0.039503 0.154539 -0.026751 4.381794 1.012149 -4.178495 -2.184488 5.076758 2.518189 -3.187937 1.206611 1.565790 0.006225 0.263104 -0.008181
34.090075 88.579348 27.641798 -150.504127 -9.119254 0.031438 -0.096424 3.975082 0.437135 0.197091 2.450409 0.413686 0.249189 3.062783 0.518545 0.197092 2.450410 0.413686 5.925319 23.136385 -2.327267 7.023380 -0.562270 -3.909466 4.450591 -1.488781 -2.176506 6.729387 -4.048439 87.475931 6.840410 7.796582 3.823629 1.075069 -9.916498 -3.371834 -6.445159 0.849312 0.333934 -0.178645 -0.344155 -86.622204 -4.262659 9.778345 -1.682646 0.206133 -2.841541 1.423366 -27.216912 15.744356 0.510915 -1.345930 0.078103 -1.543281 -3.865319 -7.874170 -1.618638 -0.038707 0.154088 -0.028400 4.289211 1.015984 -4.201709 -2.214109 5.119262 2.505658 -3.249439 1.160415 1.572804 -0.011489 0.271375 -0.015340
34.054747 88.575769 27.600591 -150.425900 -9.130892 0.062738 -0.084307 3.969823 0.409493 0.205007 2.444452 0.412094 0.259068 3.055329 0.516603 0.205007 2.444453 0.412094 5.918237 23.140966 -2.308419 7.010837 -0.558422 -3.886984 4.423525 -1.489287 -2.154921 6.803576 -4.055788 87.476397 6.831450 7.804428 3.830406 1.061728 -9.913515 -3.369556 -6.461286 0.849965 0.340709 -0.177584 -0.345928 -86.643070 -4.255109 9.796194 -1.695228 0.216387 -2.842338 1.417337 -27.278632 15.767645 0.449382 -1.389885 0.113071 -1.560276 -3.863502 -7.943645 -1.566088 -0.037820 0.158742 -0.030545 4.186750 1.027163 -4.223098 -2.247789 5.160875 2.492005 -3.361084 1.112698 1.572497 -0.054070 0.279710 -0.031951
34.018555 88.571974 27.554163 -150.353996 -9.142132 0.076979 -0.072106 3.962507 0.398125 0.213488 2.439487 0.410481 0.269654 3.049113 0.514640 0.213488 2.439487 0.410481 5.913769 23.144581 -2.289144 7.001111 -0.555532 -3.864662 4.397152 -1.491336 -2.131968 6.877846 -4.065624 87.477388 6.821048 7.809973 3.834016 1.049522 -9.912610 -3.365273 -6.474643 0.851222 0.346424 -0.174569 -0.343335 -86.660991 -4.248879 9.811473 -1.705663 0.222799 -2.843423 1.410263 -27.320309 15.793921 0.403243 -1.426952 0.163366 -1.570683 -3.872558 -8.015501 -1.515727 -0.037729 0.156706 -0.032639 4.074921 1.045315 -4.252062 -2.276983 5.197274 2.476385 -3.315879 1.055233 1.593276 -0.059618 0.291620 -0.036022
